<svg xmlns="http://www.w3.org/2000/svg" xml:space="preserve" width="3508" height="898" style="shape-rendering:geometricPrecision;text-rendering:geometricPrecision;image-rendering:optimizeQuality;fill-rule:evenodd;clip-rule:evenodd" viewBox="0 0 3508 897.72"><path d="M143.95 207.33v67.08c38.15-49.99 84.84-74.97 140.08-74.97v147.98c-44.71 0-79.25 11.33-103.58 34.03-24.33 22.68-36.5 54.09-36.5 94.2v234.79H-.06V207.33h144.01zm714.23 253.53c0 19.72-1.31 34.53-3.94 44.39H469.5c7.89 28.28 22.52 50.64 43.91 67.08 21.37 16.44 46.85 24.67 76.45 24.67 23.01 0 44.22-4.77 63.62-14.31 19.4-9.54 33.38-21.53 41.94-36h152.9c-19.08 52.61-51.96 95.03-98.65 127.25-46.04 32.24-100.3 48.33-162.76 48.33-77.62 0-142.4-24.99-194.35-74.96-51.29-49.99-76.95-112.8-76.95-188.42 0-74.32 25.66-136.81 76.95-187.44 52.61-50.63 117.39-75.97 194.35-75.97 76.27 0 140.73 25.34 193.35 75.97 51.94 49.99 77.92 113.12 77.92 189.41zM586.91 319.79c-28.3 0-52.63 8.05-73.02 24.17-20.38 16.12-34.85 37.97-43.4 65.6H703.3c-7.24-27.63-21.53-49.48-42.9-65.6-21.37-16.12-45.88-24.17-73.49-24.17zm552.43 207.16 115.41-319.62h160.82l-281.16 690.55H936.12V766.67h97.67l25.64-63.13-201.25-496.21h164.76l116.4 319.62zm793.14 43.41 97.66 140.08h-170.65l-33.55-48.34c-37.49 40.13-89.11 60.17-154.88 60.17-73.65 0-133.5-20.38-179.54-61.15-45.38-41.44-68.06-95.7-68.06-162.77 0-97.34 48.66-167.72 146-211.12l-93.72-137.13V29.76h402.49v130.22h-228.88l182.51 263.39V273.42h133.18v167.72c0 47.99-10.85 91.08-32.56 129.21v.01zm-254.51 21.71c31.55 0 59.53-7.89 83.86-23.69l-122.34-179.55c-50.63 26.97-75.95 62.49-75.95 106.56 0 28.28 10.69 51.46 32.06 69.55 21.37 18.07 48.82 27.13 82.37 27.13zm693.5-396.59c69.07 0 126.93 25.34 173.64 75.97 46.02 49.99 69.04 112.45 69.04 187.44 0 75.62-23.02 138.43-69.04 188.42-46.05 49.97-103.93 74.96-173.64 74.96-60.49 0-111.14-22.67-151.92-68.06v56.23h-144.03V.15h144.03v263.41c40.78-45.38 91.43-68.08 151.92-68.08zm-117.38 352.2c23.66 23.66 53.27 35.49 88.79 35.49 36.16 0 65.42-11.83 87.78-35.49 23.69-23.69 35.52-53.27 35.52-88.79s-11.83-65.11-35.52-88.79c-22.36-23.67-51.62-35.52-87.78-35.52-35.52 0-65.13 11.85-88.79 35.52-23.02 24.33-34.54 53.93-34.54 88.79 0 34.85 11.52 64.44 34.54 88.79zm770.46-60.18V207.33h144.03v503.11h-144.03V655.2c-36.83 44.71-85.51 67.07-146 67.07-55.91 0-100.81-17.26-134.68-51.78-33.86-34.53-50.79-80.39-50.79-137.63V207.33h144.03v282.14c0 28.28 8.21 50.96 24.65 68.07 16.44 17.1 38.16 25.63 65.13 25.63 28.93 0 52.44-8.87 70.53-26.62 18.07-17.77 27.13-40.77 27.13-69.05zM3427.04.15v579.08h80.9v131.21h-224.93V.15h144.03z" style="fill:#852b25;fill-rule:nonzero"/></svg>