<?xml version="1.0" encoding="UTF-8"?>
<svg width="354px" height="353px" viewBox="0 0 354 353" version="1.1" xmlns="http://www.w3.org/2000/svg" xmlns:xlink="http://www.w3.org/1999/xlink">
    <!-- Generator: Sketch 50.2 (55047) - http://www.bohemiancoding.com/sketch -->
    <title>illustrations empty state_empty_state_armchair2_mobile</title>
    <desc>Created with Sketch.</desc>
    <defs>
        <linearGradient x1="5.1175657%" y1="-1.23859192%" x2="91.5629322%" y2="96.7405476%" id="linearGradient-1">
            <stop stop-color="#686868" offset="18%"></stop>
            <stop stop-color="#686868" stop-opacity="0" offset="81%"></stop>
        </linearGradient>
        <linearGradient x1="91.283293%" y1="1.80472004%" x2="6.41646489%" y2="99.3984267%" id="linearGradient-2">
            <stop stop-color="#686868" offset="2%"></stop>
            <stop stop-color="#686868" stop-opacity="0" offset="85%"></stop>
        </linearGradient>
        <linearGradient x1="-10.0098828%" y1="50.0142202%" x2="108.753353%" y2="50.0142202%" id="linearGradient-3">
            <stop stop-color="#686868" stop-opacity="0" offset="4%"></stop>
            <stop stop-color="#686868" offset="18%"></stop>
            <stop stop-color="#686868" offset="82%"></stop>
            <stop stop-color="#686868" stop-opacity="0" offset="97%"></stop>
        </linearGradient>
        <linearGradient x1="48.9883223%" y1="87.7486009%" x2="44.9382588%" y2="76.4951356%" id="linearGradient-4">
            <stop stop-color="#F6EF76" stop-opacity="0" offset="0%"></stop>
            <stop stop-color="#F6EF76" offset="100%"></stop>
        </linearGradient>
    </defs>
    <g id="Symbols" stroke="none" stroke-width="1" fill="none" fill-rule="evenodd">
        <g id="Messaging-/-Full-Page-/-Empty-Page" transform="translate(-150.000000, -67.000000)">
            <g id="Group-2" transform="translate(127.000000, 67.000000)">
                <g id="illustrations-empty-state_empty_state_armchair2_mobile" transform="translate(23.000000, 0.000000)">
                    <g id="bg">
                        <path d="M344.832853,120.48503 L334.955362,120.48503 C332.66286,120.484001 330.784871,122.300614 330.716096,124.585749 L330.716096,124.860539 C330.784871,127.145674 332.66286,128.962286 334.955362,128.961257 L339.194629,128.961257 C340.709173,128.961257 342.108669,129.767023 342.865941,131.07503 C343.623213,132.383037 343.623213,133.994568 342.865941,135.302575 C342.108669,136.610582 340.709173,137.416347 339.194629,137.416347 L288.323434,137.416347 C285.982152,137.416347 284.084168,135.523611 284.084168,133.188802 C284.084168,130.853994 285.982152,128.961257 288.323434,128.961257 L294.682333,128.961257 C296.974835,128.962286 298.852825,127.145674 298.9216,124.860539 L298.9216,124.585749 C298.852825,122.300614 296.974835,120.484001 294.682333,120.48503 L284.084168,120.48503 C281.742886,120.48503 279.844902,118.592294 279.844902,116.257485 C279.844902,113.922676 281.742886,112.02994 284.084168,112.02994 L307.209365,112.02994 C308.344613,112.081413 309.453051,111.676191 310.285954,110.905203 C311.118858,110.134215 311.606478,109.062024 311.639398,107.929222 L311.639398,107.654431 C311.601239,106.517637 311.105337,105.444135 310.263723,104.676446 C309.422109,103.908757 308.305795,103.511655 307.166972,103.57485 L305.238106,103.57485 C302.896824,103.57485 300.99884,101.682114 300.99884,99.3473054 C300.99884,97.0124968 302.896824,95.1197605 305.238106,95.1197605 L334.022724,95.1197605 C306.063392,41.4415892 252.481914,5.78535127 192.046387,0.640433296 C131.61086,-4.50448468 72.7442528,21.5789704 36.0658981,69.754491 L74.219294,69.754491 C76.5605761,69.754491 78.4585602,71.6472273 78.4585602,73.9820359 C78.4585602,76.3168445 76.5605761,78.2095808 74.219294,78.2095808 L70.2555801,78.2095808 C69.1025693,78.1284566 67.9663379,78.5203578 67.1099726,79.2945425 C66.2536073,80.0687271 65.7513754,81.1580549 65.7195653,82.3102994 L65.7195653,82.5850898 C65.7570267,83.73361 66.2617094,84.8174366 67.1174216,85.5870433 C67.9731339,86.3566499 69.106136,86.745717 70.2555801,86.6646707 L93.2747956,86.6646707 C95.6160777,86.6646707 97.5140619,88.557407 97.5140619,90.8922156 C97.5140619,93.2270242 95.6160777,95.1197605 93.2747956,95.1197605 L31.8054356,95.1197605 C29.4641535,95.1197605 27.5661694,93.2270242 27.5661694,90.8922156 C27.5661694,88.557407 29.4641535,86.6646707 31.8054356,86.6646707 L31.508687,86.6646707 C32.6616978,86.7457949 33.7979292,86.3538937 34.6542945,85.579709 C35.5106598,84.8055244 36.0128917,83.7161966 36.0447018,82.5639521 L36.0447018,82.2891617 C36.0075342,81.1366907 35.4999287,80.0493674 34.6394903,79.2791095 C33.7790519,78.5088516 32.6404527,78.122505 31.4874906,78.2095808 L29.9825511,78.2095808 C-16.1956039,146.89862 -8.35814017,238.351941 48.8381638,298.230808 C106.034468,358.109675 197.252515,370.357667 268.293363,327.697406 C339.334211,285.037144 371.148371,198.90791 344.832853,120.48503 L344.832853,120.48503 Z" id="Shape" fill="#F7F7F7"></path>
                        <path d="M294.646707,78.2095808 C287.663966,79.0302219 286.990631,79.7016555 286.167665,86.6646707 C285.344699,79.7016555 284.671363,79.0302219 277.688623,78.2095808 C284.671363,77.3889398 285.344699,76.7175062 286.167665,69.754491 C286.990631,76.7175062 287.663966,77.3889398 294.646707,78.2095808 Z" id="Shape" fill="#B8B9B9"></path>
                        <path d="M114.467066,46.502994 C110.975696,46.9257485 110.651497,47.2490313 110.227545,50.7305389 C109.803593,47.2490313 109.479394,46.9257485 105.988024,46.502994 C109.479394,46.0802395 109.803593,45.7569567 110.227545,42.2754491 C110.626559,45.7569567 110.975696,46.0802395 114.467066,46.502994 Z" id="Shape" fill="#B8B9B9"></path>
                        <path d="M218.335329,101.461078 C214.843959,101.883832 214.51976,102.207115 214.095808,105.688623 C213.671856,102.207115 213.347658,101.883832 209.856287,101.461078 C213.347658,101.038323 213.671856,100.715041 214.095808,97.2335329 C214.494822,100.715041 214.843959,101.038323 218.335329,101.461078 Z" id="Shape" fill="#B8B9B9"></path>
                        <path d="M254.371257,38.0479042 C250.879887,38.4706587 250.555689,38.7939415 250.131737,42.2754491 C249.707784,38.7939415 249.383586,38.4706587 245.892216,38.0479042 C249.383586,37.6251497 249.707784,37.3018669 250.131737,33.8203593 C250.53075,37.3018669 250.879887,37.6251497 254.371257,38.0479042 Z" id="Shape" fill="#B8B9B9"></path>
                        <path d="M313.724551,158.532934 C310.233181,158.955689 309.908982,159.278971 309.48503,162.760479 C309.061078,159.278971 308.736879,158.955689 305.245509,158.532934 C308.736879,158.11018 309.061078,157.786897 309.48503,154.305389 C309.884044,157.786897 310.233181,158.11018 313.724551,158.532934 Z" id="Shape" fill="#B8B9B9"></path>
                        <path d="M55.1137725,145.850299 C48.1310321,146.67094 47.4576964,147.342374 46.6347305,154.305389 C45.8117647,147.342374 45.138429,146.67094 38.1556886,145.850299 C45.138429,145.029658 45.8117647,144.358225 46.6347305,137.39521 C47.4576964,144.358225 48.1310321,145.029658 55.1137725,145.850299 Z" id="Shape" fill="#B8B9B9"></path>
                        <path d="M169.580838,16.9101796 C162.598098,17.7308207 161.924762,18.4022543 161.101796,25.3652695 C160.278831,18.4022543 159.605495,17.7308207 152.622754,16.9101796 C159.605495,16.0895386 160.278831,15.418105 161.101796,8.45508982 C161.924762,15.418105 162.598098,16.0895386 169.580838,16.9101796 Z" id="Shape" fill="#B8B9B9"></path>
                        <path d="M131.42515,310.724551 C131.42515,308.389742 133.309143,306.497006 135.646987,306.497006 L222.592534,306.497006 C224.92419,306.497006 226.814371,308.394493 226.814371,310.724551 L226.814371,310.724551 C226.814371,313.059359 224.930378,314.952096 222.592534,314.952096 L135.646987,314.952096 C133.31533,314.952096 131.42515,313.054609 131.42515,310.724551 L131.42515,310.724551 Z" id="Rectangle-path" fill="#111" fill-rule="nonzero" opacity="0.03"></path>
                    </g>
                    <g id="ufo" transform="translate(133.544910, 29.592814)">
                        <path d="M41.6956886,1.05688623 C26.4764406,1.05688623 14.1388024,13.3596724 14.1388024,28.5359281 L14.1388024,32.7634731 C14.1375922,38.8975414 16.2057504,44.8536887 20.0105389,49.6736527 L63.3808383,49.6736527 C67.1856268,44.8536887 69.2537851,38.8975414 69.2525749,32.7634731 L69.2525749,28.5359281 C69.2525749,21.2480331 66.3492684,14.2586313 61.1813497,9.10531126 C56.0134311,3.95199126 49.0042293,1.05688623 41.6956886,1.05688623 Z" id="Shape" fill="#EBEBEB"></path>
                        <path d="M41.6956886,1.05688623 C26.4764406,1.05688623 14.1388024,13.3596724 14.1388024,28.5359281 L14.1388024,32.7634731 C14.1375922,38.8975414 16.2057504,44.8536887 20.0105389,49.6736527 L63.3808383,49.6736527 C67.1856268,44.8536887 69.2537851,38.8975414 69.2525749,32.7634731 L69.2525749,28.5359281 C69.2525749,21.2480331 66.3492684,14.2586313 61.1813497,9.10531126 C56.0134311,3.95199126 49.0042293,1.05688623 41.6956886,1.05688623 Z" id="Shape" stroke="#686868"></path>
                        <path d="M67.2176048,24.3083832 L16.1525749,24.3083832 C11.9475395,24.3139438 7.91788944,25.9893689 4.95443889,28.9642809 C1.99098833,31.9391928 0.337808458,35.9685765 0.360359281,40.1616766 L0.360359281,45.1713174 C0.400494583,45.6969981 0.662444582,46.181005 1.08107784,46.502994 C4.59988024,43.5437126 21.4307784,41.3031138 41.6956886,41.3031138 C61.9605988,41.3031138 78.791497,43.5437126 82.3102994,46.502994 C82.7289327,46.181005 82.9908827,45.6969981 83.031018,45.1713174 L83.031018,40.1616766 C83.0535848,35.9649158 81.3975012,31.9323189 78.4294615,28.9567941 C75.4614218,25.9812692 71.426315,24.3083229 67.2176048,24.3083832 L67.2176048,24.3083832 Z" id="Shape" fill="#EBEBEB"></path>
                        <path d="M67.2176048,24.3083832 L16.1525749,24.3083832 C11.9475395,24.3139438 7.91788944,25.9893689 4.95443889,28.9642809 C1.99098833,31.9391928 0.337808458,35.9685765 0.360359281,40.1616766 L0.360359281,45.1713174 C0.400494583,45.6969981 0.662444582,46.181005 1.08107784,46.502994 C4.59988024,43.5437126 21.4307784,41.3031138 41.6956886,41.3031138 C61.9605988,41.3031138 78.791497,43.5437126 82.3102994,46.502994 C82.7289327,46.181005 82.9908827,45.6969981 83.031018,45.1713174 L83.031018,40.1616766 C83.0535848,35.9649158 81.3975012,31.9323189 78.4294615,28.9567941 C75.4614218,25.9812692 71.426315,24.3083229 67.2176048,24.3083832 L67.2176048,24.3083832 Z" id="Shape" stroke="#686868" stroke-linejoin="round"></path>
                        <rect id="Rectangle-path" stroke="#686868" stroke-width="0.5" fill="#F1E48F" fill-rule="nonzero" transform="translate(12.548982, 33.820359) rotate(90.000000) translate(-12.548982, -33.820359) " x="9.36934132" y="30.6497006" width="6.35928144" height="6.34131737" rx="1.5"></rect>
                        <rect id="Rectangle-path" stroke="#686868" stroke-width="0.5" fill="#F1E48F" fill-rule="nonzero" transform="translate(27.387305, 31.706587) rotate(90.000000) translate(-27.387305, -31.706587) " x="24.2076647" y="28.5359281" width="6.35928144" height="6.34131737" rx="1.5"></rect>
                        <rect id="Rectangle-path" stroke="#686868" stroke-width="0.5" fill="#F1E48F" fill-rule="nonzero" transform="translate(42.225629, 31.706587) rotate(90.000000) translate(-42.225629, -31.706587) " x="39.045988" y="28.5359281" width="6.35928144" height="6.34131737" rx="1.5"></rect>
                        <rect id="Rectangle-path" stroke="#686868" stroke-width="0.5" fill="#F1E48F" fill-rule="nonzero" transform="translate(57.063952, 31.706587) rotate(90.000000) translate(-57.063952, -31.706587) " x="53.8843114" y="28.5359281" width="6.35928144" height="6.34131737" rx="1.5"></rect>
                        <rect id="Rectangle-path" stroke="#686868" stroke-width="0.5" fill="#F1E48F" fill-rule="nonzero" transform="translate(71.902275, 33.820359) rotate(90.000000) translate(-71.902275, -33.820359) " x="68.7226347" y="30.6497006" width="6.35928144" height="6.34131737" rx="1.5"></rect>
                        <path d="M83.0734132,46.502994 C83.0734132,49.3777246 64.5679042,51.7028743 41.7168862,51.7028743 C18.8658683,51.7028743 0.360359281,49.2931737 0.360359281,46.502994 C0.360359281,43.7128144 18.8658683,40.0137126 41.7168862,40.0137126 C64.5679042,40.0137126 83.0734132,43.5437126 83.0734132,46.502994 Z" id="Shape" stroke="#686868" fill="#B8B9B9"></path>
                    </g>
                    <g id="shine" transform="translate(82.670659, 71.868263)">
                        <polygon id="Shape" fill="url(#linearGradient-1)" fill-rule="nonzero" points="178.335449 187.956647 180.243234 187.174551 166.952335 155.531377 164.917365 156.05982"></polygon>
                        <polygon id="Shape" fill="url(#linearGradient-2)" fill-rule="nonzero" points="1.92898204 239.046527 3.90035928 239.722934 19.4382036 194.044311 17.0216766 194.657305"></polygon>
                        <path d="M103.423114,4.52347305 L103.083952,4.22754491 C100.076443,2.01795969 96.3823648,0.939820279 92.6547305,1.18371257 C87.8852695,1.18371257 83.7517365,2.47311377 81.8651497,4.5657485 L81.5683832,4.88281437 L16.9580838,194.657305 L19.3746108,194.023174 L83.3701796,5.89742515 C84.7904192,4.31209581 88.394012,3.19179641 92.6123353,3.19179641 C95.8594006,2.96673576 99.0852763,3.86235425 101.748503,5.72832335 L164.980958,156.05982 L167.100719,155.531377 L103.592695,4.92508982 L103.423114,4.52347305 Z" id="Shape" fill="url(#linearGradient-3)" fill-rule="nonzero"></path>
                        <path d="M103.423114,4.52347305 L103.083952,4.22754491 C100.076443,2.01795969 96.3823648,0.939820279 92.6547305,1.18371257 C87.8852695,1.18371257 83.7517365,2.47311377 81.8651497,4.5657485 L81.5683832,4.88281437 L16.9580838,194.657305 L19.3746108,194.023174 L83.3701796,5.89742515 C84.7904192,4.31209581 88.394012,3.19179641 92.6123353,3.19179641 C95.8594006,2.96673576 99.0852763,3.86235425 101.748503,5.72832335 L164.980958,156.05982 L167.100719,155.531377 L103.592695,4.92508982 L103.423114,4.52347305 Z" id="Shape" fill="#686868" fill-rule="nonzero"></path>
                        <g id="Group" opacity="0.6" transform="translate(0.000000, 2.113772)" fill="url(#linearGradient-4)">
                            <path d="M102.363234,5.28443114 L102.257246,5.28443114 C102.245746,5.08178124 102.202843,4.88212964 102.13006,4.69257485 L101.939281,4.22754491 C100.900599,2.4097006 97.1698204,1.0357485 92.6971257,1.0357485 C87.4189222,1.0357485 83.137006,2.91700599 83.137006,5.26329341 L82.9250299,5.26329341 L1.08107784,246.550419 L184.419162,200.47018 L102.363234,5.28443114 Z" id="Shape"></path>
                        </g>
                        <g id="Group" opacity="0.5" transform="translate(42.395210, 12.682635)" stroke="#E5BE60" stroke-width="0.5">
                            <path d="M10.725988,125.938563 L1.65341317,153.840359" id="Shape"></path>
                            <path d="M62.7661078,28.9375449 L69.3585629,48.0037725" id="Shape"></path>
                            <path d="M43.3067066,4.37550898 L41.3565269,12.6826347" id="Shape"></path>
                            <path d="M46.931497,46.4395808 L46.4439521,62.1660479" id="Shape"></path>
                            <path d="M102.850778,126.572695 L113.915928,155.615928" id="Shape"></path>
                            <path d="M56.3220359,1.56419162 L58.6961677,8.51850299" id="Shape"></path>
                            <path d="M33.7041916,38.4706587 L29.4222754,52.6117964" id="Shape"></path>
                        </g>
                    </g>
                    <g id="product" transform="translate(137.784431, 183.898204)" fill-rule="nonzero" stroke="#686868">
                        <path d="M78.4311377,42.3811377 L81.5683832,36.1666467 L87.9276647,21.6027545 C88.8179641,19.1507784 86.8677844,15.6841916 83.5609581,13.3801796 C72.2076711,6.3881588 59.3446347,2.19955276 46.0411976,1.16257485 C32.8707753,-0.192719708 19.5671927,1.65683221 7.27077844,6.55269461 C3.60359281,8.24371257 1.05988024,11.3086826 1.50502994,13.887485 L5.10862275,29.3391617 L7.08,36.0186826 L78.4311377,42.3811377 Z" id="Shape" fill="#B8B9B9"></path>
                        <path d="M5.49017964,65.1041916 L5.95652695,76.3705988 C5.97594861,76.6928189 6.22780708,76.9529354 6.55005988,76.9835928 L7.99149701,77.1104192 C8.32574296,77.1380965 8.62725297,76.910325 8.69101796,76.581976 L10.9379641,65.5269461 C10.9748206,65.3464259 10.9337697,65.1587734 10.8248681,65.0099594 C10.7159664,64.8611454 10.5492747,64.7649178 10.3656287,64.7448503 L6.12610778,64.3643713 C5.93980011,64.3688055 5.7641426,64.4519145 5.64286064,64.5930104 C5.52157868,64.7341063 5.46608003,64.9199177 5.49017964,65.1041916 Z" id="Shape" fill="#B8B9B9"></path>
                        <path d="M69.4009581,70.8113772 L69.8673054,82.0777844 C69.8867271,82.4000045 70.1385855,82.6601211 70.4608383,82.6907784 L71.9234731,82.8176048 C72.257719,82.8452821 72.559229,82.6175107 72.622994,82.2891617 L74.8699401,71.2552695 C74.9067966,71.0747493 74.8657458,70.8870968 74.7568441,70.7382828 C74.6479425,70.5894688 74.4812508,70.4932412 74.2976048,70.4731737 L70.0580838,70.0926946 C69.8722042,70.0918244 69.6946504,70.1694962 69.5694119,70.3064665 C69.4441734,70.4434369 69.3829675,70.6268908 69.4009581,70.8113772 L69.4009581,70.8113772 Z" id="Shape" fill="#B8B9B9"></path>
                        <path d="M56.3432335,60.6018563 L56.8731737,70.9593413 C56.8833651,71.2855258 57.1401568,71.5507374 57.4667066,71.5723353 L58.9505389,71.6991617 C59.2732063,71.7269745 59.5652914,71.5085295 59.6288623,71.1918563 L61.7486228,61.088024 C61.7927532,60.9067545 61.7546089,60.7153042 61.6443411,60.5646233 C61.5340733,60.4139425 61.3628679,60.3193165 61.1762874,60.3059281 L56.9367665,59.9254491 C56.7679681,59.9362949 56.6104579,60.0137523 56.4990729,60.1406898 C56.3876879,60.2676274 56.3316069,60.4335847 56.3432335,60.6018563 L56.3432335,60.6018563 Z" id="Shape" fill="#B8B9B9"></path>
                        <path d="M21.0492216,56.712515 L21.6215569,67.7464072 C21.6308497,68.1000603 21.9041664,68.3907744 22.257485,68.4228144 L23.6353293,68.5496407 C23.9937518,68.5900384 24.3242122,68.3520467 24.3984431,68.0000599 L26.6877844,57.2409581 L21.0492216,56.712515 Z" id="Shape" fill="#B8B9B9"></path>
                        <path d="M40.1270659,68.8667066 C47.6946108,69.5431138 61.7698204,70.5577246 66.1577246,69.9447305 C66.9312202,69.8372195 67.7187978,69.8948601 68.4682635,70.1138323 C70.1406657,70.551447 71.8514298,70.8275106 73.5768862,70.9382036 C77.4772455,71.2975449 78.579521,70.9382036 78.6431138,70.1561078 C78.7067066,69.374012 83.3065868,37.2235329 84.3664671,33.4821557 C85.4263473,29.7407784 87.694491,23.3783234 88.0972455,22.2791617 C88.5,21.18 88.6271856,17.9459281 84.3664671,17.5654491 C81.5177306,17.3062546 78.846041,18.9756685 77.8376048,21.6450299 C76.0358084,24.6254491 72.2202395,38.9779641 71.7326946,42.5079641 L71.0967665,46.968024 C70.6795572,49.9337242 68.0044537,52.0528903 65.0130539,51.7874251 L19.0778443,47.7078443 C16.0806915,47.4397022 13.8228578,44.8719263 13.948024,41.8738323 L14.1176048,37.371497 C14.265988,33.7992216 13.0577246,19.0028144 11.8282635,15.7476048 C11.3055786,12.9094794 8.92724098,10.7811032 6.04131737,10.5688623 C1.80179641,10.1883832 1.35664671,13.4013174 1.52622754,14.5427545 C1.69580838,15.6841916 2.81928144,22.3425749 3.20083832,26.2319162 C3.58239521,30.1212575 2.35293413,62.6310778 2.28934132,63.3497605 C2.2257485,64.0684431 3.24323353,64.6602994 7.14359281,65.0196407 C8.85331507,65.2182265 10.5781437,65.2536165 12.2946108,65.1253293 C13.0810985,65.0446805 13.8757975,65.1311301 14.6263473,65.378982 C18.7598802,66.7317964 32.0083832,68.1691617 39.5547305,68.8244311 L40.1270659,68.8667066 Z" id="Shape" fill="#EBEBEB"></path>
                        <path d="M67.2176048,52.6117964 C67.2176048,52.6117964 60.6463473,53.7320958 41.780479,52.0622156 C22.9146108,50.3923353 16.7461078,48.1094611 16.7461078,48.1094611 C14.8886269,47.8988722 13.5413263,46.2453403 13.7148503,44.3892216 L14.4567665,36.1243713 C14.6359227,34.2556178 16.2905347,32.8790982 18.1663473,33.0382635 C26.6469292,32.5679098 35.1512799,32.7516502 43.6034731,33.5878443 C52.0357666,34.2783289 60.4041133,35.5996331 68.6378443,37.5405988 C70.5118917,37.7192489 71.8923108,39.3691869 71.7326946,41.2397006 L70.9907784,49.5045509 C70.9104569,50.4183344 70.4658381,51.2617802 69.7565564,51.8458805 C69.0472748,52.4299809 68.1326373,52.7058962 67.2176048,52.6117964 Z" id="Shape" fill="#EBEBEB"></path>
                    </g>
                    <g id="product_shine" transform="translate(135.664671, 181.784431)" fill="#F1E48F" fill-rule="nonzero" opacity="0.3">
                        <g id="Group">
                            <path d="M72.4958084,85.8825749 C71.6458466,85.7993093 70.9864669,85.105764 70.9483832,84.2549701 L70.5032335,73.3479042 L70.2912575,73.3479042 C69.8787096,73.223725 69.4503301,73.1596496 69.0194012,73.1576647 L68.4258683,73.1576647 C67.0606129,73.3091223 65.6869866,73.3726672 64.3135329,73.3479042 L62.8508982,73.3479042 L62.8508982,73.5804192 C62.6813521,74.3680445 61.9841336,74.9312842 61.1762874,74.9332335 L59.5440719,74.7852695 C58.7091744,74.704677 58.0548773,74.0343529 57.9966467,73.1999401 C51.3405988,72.904012 44.2817964,72.291018 42.1832335,72.1007784 L41.6320958,72.1007784 C39.2791617,71.8894012 33.3650299,71.3398204 27.5356886,70.5788623 C27.3042187,71.3192675 26.617624,71.8242007 25.8398802,71.825988 L24.3136527,71.6991617 C23.4362198,71.6168005 22.7512149,70.9067674 22.7026347,70.0292814 L22.7026347,69.754491 C20.5974145,69.4715536 18.5148665,69.0406809 16.4705389,68.4650898 C16.0128172,68.3116412 15.5331959,68.2331198 15.0502994,68.2325749 L14.5627545,68.2325749 L14.054012,68.2325749 L11.9342515,78.8014371 C11.7734079,79.5974613 11.0739526,80.1713368 10.2596407,80.1753892 L8.64862275,80.0485629 C7.79033349,79.975227 7.11939489,79.2790603 7.08,78.4209581 L6.6348503,67.7464072 C5.15101796,67.4927545 3.26443114,66.9008982 3.41281437,65.2732934 C3.41281437,65.0196407 4.68467066,32.2138922 4.32431138,28.3668263 C4.00634731,25.0059281 3.1160479,19.488982 2.77688623,17.417485 L2.60730539,16.9101796 C2.58607085,16.6569689 2.58607085,16.4024323 2.60730539,16.1492216 C2.18335329,13.1265269 4.72706587,9.80790419 8.96658683,7.69413174 C18.8562765,3.65919327 29.4641904,1.66728869 40.1482635,1.83898204 C42.8403593,1.83898204 45.5748503,1.96580838 48.2669461,2.19832335 C61.7683963,3.21215395 74.8232284,7.46927872 86.3166467,14.6061677 C88.9615746,16.248533 90.7748208,18.9414836 91.2980838,22.0043713 C91.5542925,22.8953401 91.5542925,23.8401688 91.2980838,24.7311377 L91.0649102,25.3652695 C90.3653892,27.3522156 88.5,32.615509 87.588503,35.9341317 C86.677006,39.2527545 82.0559281,70.8113772 81.9075449,72.4178443 C81.7591617,74.0243114 79.1730539,74.2779641 78.1767665,74.2779641 L77.985988,74.2779641 L75.8662275,84.6777246 C75.705384,85.4737487 75.0059286,86.0476242 74.1916168,86.0516766 L72.4958084,85.8825749 Z" id="Shape"></path>
                            <path d="M40.1270659,2.91700599 C42.691976,2.91700599 45.3840719,3.02269461 48.1609581,3.27634731 C61.4643951,4.31332522 74.3274315,8.50193126 85.6807186,15.4939521 C88.0966472,16.9688549 89.7575707,19.4108335 90.2382036,22.1946108 C90.4361287,22.8853803 90.4361287,23.6176137 90.2382036,24.3083832 C89.8566467,25.4075449 87.5673054,31.77 86.5074251,35.5113772 C85.4475449,39.2527545 80.8476647,71.445509 80.7840719,72.1853293 C80.720479,72.9251497 80.0845509,73.0942515 78.091976,73.0942515 L76.9897006,73.0942515 C77.0040719,73.171094 77.0040719,73.2499239 76.9897006,73.3267665 L74.7427545,84.3606587 C74.6826644,84.6645389 74.4174076,84.8849618 74.1068263,84.8891018 L74.1068263,84.8891018 L72.6441916,84.7622754 C72.3219388,84.7316181 72.0700803,84.4715015 72.0506587,84.1492814 L71.5843114,72.8828743 C71.5795842,72.7384626 71.6244556,72.5967714 71.711497,72.4812575 L70.6304192,72.2064671 C70.1213276,72.0548207 69.5931105,71.9765238 69.0617964,71.9739521 L68.3198802,71.9739521 C67.0037594,72.1187929 65.679915,72.1823273 64.3559281,72.1641916 L61.9817964,72.1641916 L61.7486228,73.2422156 C61.6872725,73.542238 61.4196958,73.7556947 61.1126946,73.749521 L61.1126946,73.749521 L59.6288623,73.6226946 C59.3023125,73.6010967 59.0455207,73.3358851 59.0353293,73.0097006 L59.0353293,72.058503 C53.3967665,71.825988 46.7407186,71.3186826 42.3104192,70.9170659 L41.7592814,70.9170659 C37.6469461,70.5577246 31.8388024,69.9658683 26.7513772,69.2683234 L26.5817964,70.0715569 C26.510782,70.3982119 26.2173786,70.6287253 25.8822754,70.6211377 L25.8822754,70.6211377 L24.5044311,70.4943114 C24.1511125,70.4622714 23.8777958,70.1715573 23.868503,69.8179042 L23.868503,68.8244311 C21.5279592,68.5224018 19.211679,68.0562164 16.9368862,67.4293413 C16.3756456,67.2469 15.7889915,67.1541566 15.1986826,67.1545509 L14.6051497,67.1545509 L13.2061078,67.1545509 C13.2451629,67.2783875 13.2451629,67.4111933 13.2061078,67.5350299 L10.9591617,78.5689222 C10.8990716,78.8728024 10.6338148,79.0932253 10.3232335,79.0973653 L10.3232335,79.0973653 L8.88179641,78.9705389 C8.5595436,78.9398815 8.30768514,78.679765 8.28826347,78.3575449 L7.82191617,67.0911377 C7.80534848,67.0073939 7.80534848,66.9212289 7.82191617,66.837485 C5.25700599,66.4781437 4.51508982,65.9497006 4.55748503,65.3578443 C4.59988024,64.765988 5.82934132,32.1293413 5.46898204,28.24 C5.10862275,24.3506587 3.9851497,17.6711377 3.79437126,16.5508383 C3.77283102,16.3329432 3.77283102,16.113464 3.79437126,15.8955689 L3.79437126,15.8955689 C3.34922156,13.3379042 5.91413174,10.2517964 9.56011976,8.56077844 C19.3178023,4.61678214 29.768909,2.66183677 40.2966467,2.81131737 L40.1270659,2.91700599 Z M40.2966467,0.69754491 C29.3887637,0.532993298 18.5619615,2.5901008 8.47904192,6.74293413 C3.87916168,8.85670659 1.01748503,12.6826347 1.48383234,16.1280838 C1.45964856,16.4164628 1.45964856,16.7063516 1.48383234,16.9947305 L1.58982036,17.6922754 C1.92898204,19.8060479 2.81928144,25.2384431 3.1160479,28.5570659 C3.41281437,31.8756886 2.31053892,63.7091018 2.2045509,65.2944311 C2.01377246,67.4082036 3.83676647,68.2748503 5.46898204,68.6976048 L5.87173653,78.5689222 C5.9342902,79.9854058 7.05973921,81.1259238 8.47904192,81.2111377 L9.92047904,81.3379641 L10.1748503,81.3379641 C11.4610599,81.3450164 12.5837884,80.4703625 12.8881437,79.2241916 L14.8383234,69.3317365 L14.965509,69.3317365 C15.3325611,69.3308393 15.6974398,69.3879135 16.0465868,69.5008383 C17.9020376,70.0412278 19.7932848,70.4509 21.7063473,70.7268263 C22.0637577,71.7938376 23.0205321,72.5487986 24.1440719,72.6503593 L25.5007186,72.7771856 L25.7550898,72.7771856 C26.6603902,72.7755957 27.5107098,72.3437858 28.0444311,71.6146108 C33.6617964,72.3332934 39.1943713,72.8405988 41.4413174,73.051976 L41.9924551,73.051976 C44.0062275,73.2210778 50.6198802,73.7917964 57.0639521,74.1088623 C57.4712316,75.0188402 58.3374315,75.6404195 59.3320958,75.7364671 L60.8159281,75.8632934 L61.0702994,75.8632934 C62.1283365,75.8556356 63.0900676,75.2490795 63.5504192,74.2991018 L64.2287425,74.2991018 C65.644984,74.3185028 67.0610263,74.2479007 68.4682635,74.0877246 L69.3797605,74.0877246 L69.8037126,84.1915569 C69.8617176,85.5782059 70.940182,86.7078465 72.3262275,86.8337725 L73.7888623,86.9605988 L74.1916168,86.9605988 C75.4778263,86.9676511 76.6005548,86.0929972 76.9049102,84.8468263 L78.8550898,75.2925749 C81.42,75.1446108 82.7978443,74.2145509 82.9674251,72.4812575 C83.137006,70.7479641 87.6520958,39.6120958 88.6271856,36.1877844 C89.6022754,32.7634731 91.3828743,27.7326946 92.0823952,25.7668862 L92.3155689,25.090479 C92.6602524,24.0382341 92.7042924,22.9110666 92.4427545,21.8352695 C91.8337352,18.4817591 89.8217832,15.5453815 86.9101796,13.7606587 C75.2730849,6.49006536 62.0430673,2.13845085 48.3517365,1.07802395 C45.6172455,0.824371257 42.8615569,0.718682635 40.1270659,0.718682635 L40.2966467,0.69754491 Z" id="Shape"></path>
                        </g>
                    </g>
                </g>
            </g>
        </g>
    </g>
</svg>